# xmcd
#
# Track frame offsets:
#	150
#	23790
#	42775
#	58300
#	82279
#	97322
#	114541
#	140726
#	156239
#	168990
#	181304
#	193977
#	220803
#	247535
#
# Disc length: 3657 seconds
#
# Revision: 0
# Processed by: cddbd v1.5.1PL0 Copyright (c) Steve Scherf et al.
# Submitted via: audiograbber 1.82.01
#
DISCID=cc0e470e
DTITLE=Mr.C and 16B - Mr.C and 16B DJ Faceoff
DYEAR=2005
DGENRE=House
TTITLE0=Enlightenment (16B Remiis Kevorkian
TTITLE1=Sugar (all you need) by John Dahlback
TTITLE2=Walk Right Back by Zoo Brazil 
TTITLE3=Ragapoon by Arnaud Le Texier and James Warren
TTITLE4=Martian Keg party by Army of One
TTITLE5=Radiator by DJT
TTITLE6=Dinamo by Nathan Fake
TTITLE7=Lazerbeem by Dirt Crew
TTITLE8=Manga by H-Man
TTITLE9=A Bat in My Shoe by St. Plomb
TTITLE10=Liptrick byk
TTITLE11=That Look by MR. C and 16B
TTITLE12=Thrill of Love by Levon Vincent
TTITLE13=CKlanger By Sycophant Slags
EXTD=
EXTT0=
EXTT1=
EXTT2=
EXTT3=
EXTT4=
EXTT5=
EXTT6=
EXTT7=
EXTT8=
EXTT9=
EXTT10=
EXTT11=
EXTT12=
EXTT13=
PLAYORDER=
